<?xml version="1.0" encoding="utf-8"?>
<!-- Generator: Adobe Illustrator 25.3.1, SVG Export Plug-In . SVG Version: 6.00 Build 0)  -->
<svg version="1.1" xmlns="http://www.w3.org/2000/svg" xmlns:xlink="http://www.w3.org/1999/xlink" x="0px" y="0px"
	 viewBox="0 0 324 108" style="enable-background:new 0 0 324 108;" xml:space="preserve">
<style type="text/css">
	.st0{fill:#EB0A8C;}
	.st1{fill:#5CBB53;}
	.st2{fill:#FCB817;}
	.st3{fill:#FFFFFF;}
</style>
<g id="Layer_2">
</g>
<g id="Layer_1">
	<g>
		<path class="st0" d="M59.9,81.6L59.9,81.6c-3.6-2-4.9-6.5-2.9-10l23.2-41.7c2-3.6,6.5-4.9,10-2.9l0,0c3.6,2,4.9,6.5,2.9,10
			L69.9,78.7C67.9,82.3,63.4,83.6,59.9,81.6z"/>
		<path class="st1" d="M48,60.1L48,60.1c-3.6-2-4.9-6.5-2.9-10l11.2-20.2c2-3.6,6.5-4.9,10-2.9l0,0c3.6,2,4.9,6.5,2.9,10L58,57.2
			C56.1,60.8,51.6,62,48,60.1z"/>
		<circle class="st2" cx="40.2" cy="33.4" r="7.4"/>
	</g>
	<g>
		<path class="st3" d="M131.9,58.5c0-1.1-0.4-2-1.2-2.5s-2.2-1.2-4.2-1.9s-3.6-1.3-4.8-1.9c-3.2-1.7-4.8-4.1-4.8-7.1
			c0-1.5,0.4-2.9,1.3-4.1c0.9-1.2,2.1-2.1,3.7-2.8s3.4-1,5.5-1c2,0,3.8,0.4,5.4,1.1c1.6,0.7,2.8,1.8,3.7,3.1s1.3,2.9,1.3,4.6h-5.9
			c0-1.3-0.4-2.3-1.2-3s-2-1.1-3.5-1.1c-1.4,0-2.5,0.3-3.3,0.9c-0.8,0.6-1.2,1.4-1.2,2.4c0,0.9,0.5,1.7,1.4,2.3
			c0.9,0.6,2.3,1.2,4.1,1.8c3.3,1,5.8,2.2,7.3,3.7s2.3,3.3,2.3,5.5c0,2.5-0.9,4.4-2.8,5.8c-1.9,1.4-4.4,2.1-7.5,2.1
			c-2.2,0-4.2-0.4-6-1.2s-3.2-1.9-4.1-3.3c-0.9-1.4-1.4-3-1.4-4.8h5.9c0,3.1,1.9,4.7,5.6,4.7c1.4,0,2.5-0.3,3.3-0.8
			S131.9,59.5,131.9,58.5z"/>
		<path class="st3" d="M153.6,66c-0.3-0.5-0.4-1.1-0.6-1.9c-1.4,1.5-3.1,2.3-5.3,2.3c-2.1,0-3.8-0.6-5.1-1.8c-1.4-1.2-2-2.7-2-4.5
			c0-2.2,0.8-4,2.5-5.2c1.7-1.2,4.1-1.8,7.2-1.8h2.6v-1.2c0-1-0.3-1.8-0.8-2.3c-0.5-0.6-1.3-0.9-2.4-0.9c-1,0-1.7,0.2-2.2,0.7
			c-0.5,0.5-0.8,1.1-0.8,1.9H141c0-1.2,0.4-2.4,1.1-3.4c0.8-1,1.8-1.9,3.2-2.5c1.4-0.6,2.9-0.9,4.6-0.9c2.6,0,4.7,0.7,6.2,2
			c1.5,1.3,2.3,3.1,2.3,5.5v9.2c0,2,0.3,3.5,0.8,4.6V66H153.6z M148.9,62c0.8,0,1.6-0.2,2.3-0.6s1.2-0.9,1.6-1.5v-3.6h-2.1
			c-2.8,0-4.3,1-4.5,2.9l0,0.3c0,0.7,0.2,1.3,0.7,1.7C147.4,61.8,148.1,62,148.9,62z"/>
		<path class="st3" d="M168.1,44.8l0.2,2.4c1.5-1.8,3.5-2.8,6.1-2.8c2.7,0,4.6,1.1,5.6,3.2c1.5-2.1,3.6-3.2,6.3-3.2
			c2.3,0,4,0.7,5.1,2c1.1,1.3,1.7,3.3,1.7,6V66h-5.7V52.5c0-1.2-0.2-2.1-0.7-2.6s-1.3-0.8-2.5-0.8c-1.7,0-2.9,0.8-3.5,2.4l0,14.5
			h-5.6V52.5c0-1.2-0.2-2.1-0.7-2.7c-0.5-0.5-1.3-0.8-2.5-0.8c-1.6,0-2.8,0.7-3.5,2V66h-5.6V44.8H168.1z"/>
		<path class="st3" d="M216.5,55.6c0,3.3-0.7,5.9-2.2,7.8c-1.5,2-3.5,2.9-6,2.9c-2.1,0-3.9-0.7-5.2-2.2v10h-5.6V44.8h5.2l0.2,2.1
			c1.4-1.6,3.2-2.5,5.4-2.5c2.6,0,4.6,1,6.1,2.9s2.2,4.6,2.2,8V55.6z M210.8,55.2c0-2-0.3-3.5-1-4.6c-0.7-1.1-1.7-1.6-3-1.6
			c-1.8,0-3,0.7-3.7,2v8.7c0.7,1.4,1.9,2.1,3.7,2.1C209.5,61.8,210.8,59.6,210.8,55.2z"/>
		<path class="st3" d="M225.9,66h-5.7V36h5.7V66z"/>
		<path class="st3" d="M240.3,66.3c-3.1,0-5.6-1-7.6-2.9c-1.9-1.9-2.9-4.4-2.9-7.6v-0.5c0-2.1,0.4-4,1.2-5.7s2-3,3.5-3.9
			s3.2-1.4,5.1-1.4c2.9,0,5.2,0.9,6.8,2.7s2.5,4.4,2.5,7.8v2.3h-13.5c0.2,1.4,0.7,2.5,1.7,3.3s2.1,1.2,3.5,1.2
			c2.2,0,3.9-0.8,5.1-2.4l2.8,3.1c-0.8,1.2-2,2.1-3.4,2.8S242,66.3,240.3,66.3z M239.6,49c-1.1,0-2,0.4-2.7,1.1
			c-0.7,0.8-1.1,1.8-1.3,3.3h7.9v-0.5c0-1.3-0.4-2.2-1-2.9C241.8,49.3,240.8,49,239.6,49z"/>
		<path class="st3" d="M263.1,58.9l6.4-21.4h6.5L266.1,66H260l-9.9-28.4h6.5L263.1,58.9z"/>
		<path class="st3" d="M290.4,63.8c-1.4,1.7-3.3,2.5-5.8,2.5c-2.3,0-4-0.7-5.2-2s-1.8-3.2-1.8-5.7V44.8h5.6v13.7c0,2.2,1,3.3,3,3.3
			c1.9,0,3.2-0.7,3.9-2v-15h5.7V66h-5.3L290.4,63.8z"/>
	</g>
</g>
</svg>
